<?xml version="1.0" encoding="UTF-8" standalone="no"?>
<svg
   xmlns:ns="http://ns.adobe.com/SaveForWeb/1.0/"
   xmlns:dc="http://purl.org/dc/elements/1.1/"
   xmlns:cc="http://creativecommons.org/ns#"
   xmlns:rdf="http://www.w3.org/1999/02/22-rdf-syntax-ns#"
   xmlns:svg="http://www.w3.org/2000/svg"
   xmlns="http://www.w3.org/2000/svg"
   xmlns:sodipodi="http://sodipodi.sourceforge.net/DTD/sodipodi-0.dtd"
   xmlns:inkscape="http://www.inkscape.org/namespaces/inkscape"
   inkscape:version="1.0beta2 (2b71d25, 2019-12-03)"
   height="18"
   width="18"
   sodipodi:docname="ios.svg"
   xml:space="preserve"
   viewBox="0 0 18 18"
   y="0px"
   x="0px"
   id="Capa_1"
   version="1.1"><defs
   id="defs26" /><sodipodi:namedview
   inkscape:current-layer="Capa_1"
   inkscape:window-maximized="0"
   inkscape:window-y="23"
   inkscape:window-x="0"
   inkscape:cy="400"
   inkscape:cx="400"
   inkscape:zoom="1.30375"
   showgrid="false"
   id="namedview24"
   inkscape:window-height="1310"
   inkscape:window-width="2418"
   inkscape:pageshadow="2"
   inkscape:pageopacity="0"
   guidetolerance="10"
   gridtolerance="10"
   objecttolerance="10"
   borderopacity="1"
   inkscape:document-rotation="0"
   bordercolor="#666666"
   pagecolor="#ffffff" />
<style
   id="style10"
   type="text/css">
	.st0{fill:url(#SVGID_1_);}
	.st1{fill:#FFFFFF;}
</style>
<metadata
   id="metadata12">
	<ns:sfw>
		<ns:slices />
		<ns:sliceSourceBounds
   y="0"
   x="0"
   width="800"
   height="800"
   bottomLeftOrigin="true" />
	</ns:sfw>
<rdf:RDF><cc:Work
     rdf:about=""><dc:format>image/svg+xml</dc:format><dc:type
       rdf:resource="http://purl.org/dc/dcmitype/StillImage" /><dc:title></dc:title></cc:Work></rdf:RDF></metadata>
<linearGradient
   y2="800"
   x2="400"
   y1="0"
   x1="400"
   gradientUnits="userSpaceOnUse"
   id="SVGID_1_">
	<stop
   id="stop14"
   style="stop-color:#0ED4FC"
   offset="0" />
	<stop
   id="stop16"
   style="stop-color:#0C57EF"
   offset="1" />
</linearGradient>

<g
   transform="matrix(0.02249719,0,0,0.02249719,-8.595e-7,0.001124)"
   id="g30"><path
     inkscape:connector-curvature="0"
     style="fill:url(#SVGID_1_)"
     class="st0"
     d="M 638.4,0 H 161.6 C 72.3,0 0,72.3 0,161.6 V 638.5 C 0,727.7 72.3,800 161.6,800 h 476.9 c 89.2,0 161.6,-72.3 161.6,-161.6 V 161.6 C 800,72.3 727.7,0 638.4,0 Z"
     id="path19" /><path
     inkscape:connector-curvature="0"
     class="st1"
     d="m 396.6,183.8 16.2,-28 c 10,-17.5 32.3,-23.4 49.8,-13.4 17.5,10 23.4,32.3 13.4,49.8 L 319.9,462.4 h 112.9 c 36.6,0 57.1,43 41.2,72.8 H 143 c -20.2,0 -36.4,-16.2 -36.4,-36.4 0,-20.2 16.2,-36.4 36.4,-36.4 h 92.8 L 354.6,256.5 317.5,192.1 c -10,-17.5 -4.1,-39.6 13.4,-49.8 17.5,-10 39.6,-4.1 49.8,13.4 z m -140.4,388.9 -35,60.7 c -10,17.5 -32.3,23.4 -49.8,13.4 C 153.9,636.8 148,614.5 158,597 l 26,-45 c 29.4,-9.1 53.3,-2.1 72.2,20.7 z M 557.6,462.6 h 94.7 c 20.2,0 36.4,16.2 36.4,36.4 0,20.2 -16.2,36.4 -36.4,36.4 h -52.6 l 35.5,61.6 c 10,17.5 4.1,39.6 -13.4,49.8 -17.5,10 -39.6,4.1 -49.8,-13.4 C 512.2,529.7 467.3,452.1 437.5,400.4 407,347.8 428.8,295 450.3,277.1 c 23.9,41 59.6,102.9 107.3,185.5 z"
     id="path21" /></g>
</svg>
