<svg height="18" viewBox="0 0 18 18" width="18" xmlns="http://www.w3.org/2000/svg"><path d="m16.263114 14.027466c-.272213.628869-.594426 1.20774-.967748 1.739947-.508874.725532-.925527 1.22774-1.246629 1.506621-.497762.457763-1.03108.692201-1.602174.705534-.409987 0-.904417-.116664-1.479955-.353322-.577427-.23555-1.1080775-.352212-1.5932851-.352212-.5088735 0-1.0546349.116662-1.6383948.352212-.5846495.236658-1.0556349.359989-1.4157353.37221-.5476501.023333-1.093522-.217771-1.6383947-.724422-.3477669-.303325-.7827536-.823309-1.3038493-1.559954-.5590939-.786642-1.0187466-1.698836-1.3788469-2.738805-.3856549-1.123299-.5789824-2.211044-.5789824-3.2641229 0-1.2062967.2606588-2.2467096.782754-3.1185722.4103209-.7003117.9561932-1.2527396 1.6393944-1.6582831.6832018-.4055428 1.4214017-.6122032 2.2163778-.6254253.4349864 0 1.005414.1345515 1.7142812.398988.7068675.2653253 1.1607427.3998768 1.3597364.3998768.1487732 0 .6529802-.1573289 1.5077317-.4709856.80831-.2908801 1.490511-.4113213 2.049383-.3638784 1.514399.1222186 2.652142.7192007 3.408785 1.7947236-1.354402.8206419-2.024383 1.9700514-2.01105 3.4445621.01222 1.148521.428877 2.104269 1.24774 2.863136.371099.352211.785532.624425 1.246627.817753-.09999.289991-.205547.56776-.317766.834419zm-3.473227-13.66736352c0 .90020552-.32888 1.74072492-.984415 2.51870092-.791088.9248612-1.747947 1.4592892-2.785583 1.3749586-.0132217-.1079969-.0208882-.2216599-.0208882-.3411006 0-.8641963.3762109-1.7890571 1.0443022-2.5452565.333545-.38287698.757754-.701234 1.272183-.95519343.513318-.2501702.998859-.38851971 1.455512-.41221148.01333.12034342.01889.24069441.01889.36009082z" stroke-width=".015162"/></svg>